<svg width="97" height="109" viewBox="0 0 97 109" fill="none" xmlns="http://www.w3.org/2000/svg">
<g style="mix-blend-mode:darken">
<path d="M55.1631 13.7744C55.6221 13.7744 56.0199 13.9427 56.3564 14.2793C56.7236 14.5853 56.9072 14.9984 56.9072 15.5186C56.9072 16.1917 56.6165 16.6966 56.0352 17.0332C55.9434 17.0944 55.5303 17.3851 54.7959 17.9053C54.0921 18.4255 53.3118 19.2669 52.4551 20.4297C51.5983 21.5924 50.7721 23.1377 49.9766 25.0654C49.181 26.9626 48.6761 29.3187 48.4619 32.1338C48.4007 32.6234 48.3548 33.113 48.3242 33.6025C48.3242 34.0921 48.3089 34.5817 48.2783 35.0713C48.8291 35.0101 49.3952 34.9642 49.9766 34.9336C50.5885 34.8724 51.2311 34.8418 51.9043 34.8418C54.1074 34.8418 56.234 35.0866 58.2842 35.5762C60.3343 36.0658 62.2161 36.7695 63.9297 37.6875C68.3665 35.9128 71.763 33.5566 74.1191 30.6191C76.4753 27.6816 77.6533 24.4076 77.6533 20.7969C77.6533 18.1042 76.9801 15.7174 75.6338 13.6367C74.2874 11.5254 72.3903 9.75065 69.9424 8.3125C67.5251 6.87435 64.6182 5.77279 61.2217 5.00781C57.8558 4.24284 54.1533 3.86035 50.1143 3.86035C46.5954 3.86035 43 4.13574 39.3281 4.68652C35.6868 5.20671 32.1527 6.00228 28.7256 7.07324C25.3291 8.14421 22.1315 9.47526 19.1328 11.0664C16.1341 12.6576 13.5179 14.4935 11.2842 16.5742C9.05046 18.6243 7.29102 20.9193 6.00586 23.459C4.7207 25.9987 4.07812 28.7526 4.07812 31.7207C4.07812 33.9238 4.46061 35.8669 5.22559 37.5498C5.99056 39.2021 7.00033 40.5944 8.25488 41.7266C9.54004 42.8281 11.0088 43.6696 12.6611 44.251C14.3135 44.8018 16.0423 45.0771 17.8477 45.0771C19.9896 45.0771 21.8714 44.863 23.4932 44.4346C25.1149 44.0062 26.4766 43.5472 27.5781 43.0576C28.6797 42.5374 29.5059 42.0632 30.0566 41.6348C30.638 41.1758 30.9593 40.9157 31.0205 40.8545C31.2347 40.7015 31.4795 40.5332 31.7549 40.3496C32.0303 40.1354 32.321 40.0283 32.627 40.0283C33.0859 40.0283 33.4837 40.1966 33.8203 40.5332C34.1569 40.8392 34.3252 41.237 34.3252 41.7266C34.3252 42.2161 34.1569 42.6139 33.8203 42.9199C33.7591 42.9811 33.3613 43.3177 32.627 43.9297C31.9232 44.5111 30.8981 45.1383 29.5518 45.8115C28.2054 46.4847 26.5531 47.0967 24.5947 47.6475C22.667 48.1982 20.4486 48.4736 17.9395 48.4736C15.6139 48.4736 13.3955 48.0911 11.2842 47.3262C9.20345 46.5612 7.36751 45.4596 5.77637 44.0215C4.18522 42.5833 2.91536 40.8392 1.9668 38.7891C1.04883 36.7083 0.589844 34.3522 0.589844 31.7207C0.589844 28.8138 1.18652 26.0293 2.37988 23.3672C3.57324 20.6745 5.25618 18.1654 7.42871 15.8398C9.60124 13.5143 12.2021 11.4183 15.2314 9.55176C18.2607 7.65462 21.596 6.03288 25.2373 4.68652C28.9092 3.34017 32.8411 2.2998 37.0332 1.56543C41.2253 0.831055 45.555 0.463867 50.0225 0.463867C54.5817 0.463867 58.7585 0.922852 62.5527 1.84082C66.3776 2.72819 69.667 4.02865 72.4209 5.74219C75.1748 7.42513 77.3167 9.50586 78.8467 11.9844C80.3766 14.4323 81.1416 17.2168 81.1416 20.3379C81.1416 24.4688 79.9482 28.2171 77.5615 31.583C75.2054 34.9489 71.7324 37.7487 67.1426 39.9824C68.8255 41.4206 70.1413 43.1035 71.0898 45.0312C72.069 46.9284 72.7881 48.8561 73.2471 50.8145C73.7367 52.7728 74.0426 54.6393 74.165 56.4141C74.318 58.1888 74.4251 59.6729 74.4863 60.8662C74.5475 62.6104 74.7005 64.0332 74.9453 65.1348C75.2207 66.2057 75.5879 67.0472 76.0469 67.6592C76.5365 68.2712 77.1178 68.6995 77.791 68.9443C78.4948 69.1585 79.3363 69.2656 80.3154 69.2656C81.6924 69.2656 82.9622 68.9443 84.125 68.3018C85.2878 67.6286 86.3281 66.8024 87.2461 65.8232C88.1947 64.8441 89.0208 63.7884 89.7246 62.6562C90.459 61.4935 91.071 60.4225 91.5605 59.4434C92.0501 58.4336 92.4173 57.6074 92.6621 56.9648C92.9375 56.2917 93.0752 55.9398 93.0752 55.9092C93.3812 55.1442 93.9167 54.7617 94.6816 54.7617C95.2018 54.7617 95.6149 54.9453 95.9209 55.3125C96.2575 55.6491 96.4258 56.0469 96.4258 56.5059C96.4258 56.6589 96.3952 56.8577 96.334 57.1025C96.3034 57.2249 96.1198 57.6992 95.7832 58.5254C95.4772 59.321 95.0182 60.3001 94.4062 61.4629C93.7943 62.5951 93.0293 63.819 92.1113 65.1348C91.1934 66.4505 90.1224 67.6745 88.8984 68.8066C87.7051 69.9082 86.3434 70.8262 84.8135 71.5605C83.3141 72.2949 81.6465 72.6621 79.8105 72.6621C78.1888 72.6621 76.8271 72.402 75.7256 71.8818C74.6546 71.3617 73.7673 70.612 73.0635 69.6328C72.3903 68.623 71.8854 67.4144 71.5488 66.0068C71.2428 64.5687 71.0592 62.9316 70.998 61.0957C70.9674 60.3307 70.9215 59.4281 70.8604 58.3877C70.7992 57.3167 70.6768 56.1999 70.4932 55.0371C70.3402 53.8438 70.1107 52.6198 69.8047 51.3652C69.4987 50.1107 69.0703 48.8867 68.5195 47.6934C67.9688 46.5 67.2803 45.3678 66.4541 44.2969C65.6279 43.2259 64.6182 42.2926 63.4248 41.4971C61.0687 42.2926 58.6208 42.9199 56.0811 43.3789C53.5719 43.8073 50.971 44.0368 48.2783 44.0674V45.4443C48.2783 49.208 47.8958 52.7422 47.1309 56.0469C46.3965 59.321 45.1878 62.182 43.5049 64.6299C41.8219 67.0472 39.6494 68.9443 36.9873 70.3213C34.3252 71.7288 31.0817 72.4326 27.2568 72.4326C25.3597 72.4326 23.4779 72.1725 21.6113 71.6523C19.7754 71.1628 18.0465 70.4743 16.4248 69.5869C14.8337 68.6995 13.3955 67.6592 12.1104 66.4658C10.8558 65.2419 9.86133 63.9261 9.12695 62.5186C8.97396 62.2738 8.89746 61.9984 8.89746 61.6924C8.89746 61.264 9.05046 60.8815 9.35645 60.5449C9.69303 60.1777 10.1214 59.9941 10.6416 59.9941C11.3148 59.9941 11.8197 60.2848 12.1562 60.8662C12.8294 62.0596 13.7015 63.1611 14.7725 64.1709C15.8434 65.1807 17.0368 66.0527 18.3525 66.7871C19.6989 67.4909 21.1217 68.0417 22.6211 68.4395C24.151 68.8372 25.6963 69.0361 27.2568 69.0361C30.4085 69.0361 33.1012 68.4854 35.335 67.3838C37.5687 66.2516 39.3893 64.6605 40.7969 62.6104C42.2044 60.5296 43.2295 58.0511 43.8721 55.1748C44.5146 52.2679 44.8359 49.0244 44.8359 45.4443V43.6543C43.8262 43.3177 43.0153 42.8434 42.4033 42.2314C41.7913 41.6195 41.4854 40.8698 41.4854 39.9824C41.4854 39.0951 41.776 38.3148 42.3574 37.6416C42.9388 36.9684 43.765 36.4176 44.8359 35.9893C44.8359 35.2855 44.8512 34.597 44.8818 33.9238C44.9124 33.2201 44.9583 32.5316 45.0195 31.8584C45.2031 29.6553 45.5397 27.6816 46.0293 25.9375C46.5495 24.1934 47.1462 22.6634 47.8193 21.3477C48.5231 20.0319 49.2422 18.915 49.9766 17.9971C50.7109 17.0791 51.3994 16.3294 52.042 15.748C52.6846 15.1361 53.2201 14.6924 53.6484 14.417C54.0768 14.1416 54.3216 13.9886 54.3828 13.958C54.597 13.8356 54.8571 13.7744 55.1631 13.7744ZM59.4775 39.3857C58.9574 39.2327 58.4525 39.0798 57.9629 38.9268C57.4733 38.7738 56.9378 38.6514 56.3564 38.5596C55.8057 38.4372 55.1784 38.3454 54.4746 38.2842C53.8014 38.1924 53.0212 38.1465 52.1338 38.1465C50.5426 38.1465 49.2422 38.2383 48.2324 38.4219V38.4678V40.6709C50.099 40.6709 52.0114 40.5638 53.9697 40.3496C55.9587 40.1354 57.7946 39.8141 59.4775 39.3857Z" fill="#000001"/>
<path d="M51.556 95.616C50.9827 95.616 50.696 95.3293 50.696 94.756C50.696 94.1827 50.9827 93.896 51.556 93.896C52.1293 93.896 52.416 94.1827 52.416 94.756C52.416 95.3293 52.1293 95.616 51.556 95.616ZM49.578 98.626C49.0047 98.626 48.718 98.3393 48.718 97.766C48.718 97.1927 49.0047 96.906 49.578 96.906C50.1513 96.906 50.438 97.1927 50.438 97.766C50.438 98.3393 50.1513 98.626 49.578 98.626ZM47.256 101.12C46.6827 101.12 46.396 100.833 46.396 100.26C46.396 99.6867 46.6827 99.4 47.256 99.4C47.8293 99.4 48.116 99.6867 48.116 100.26C48.116 100.833 47.8293 101.12 47.256 101.12ZM44.59 103.528C44.0167 103.528 43.73 103.241 43.73 102.668C43.73 102.095 44.0167 101.808 44.59 101.808C45.1633 101.808 45.45 102.095 45.45 102.668C45.45 103.241 45.1633 103.528 44.59 103.528ZM41.58 105.42C41.0067 105.42 40.72 105.133 40.72 104.56C40.72 103.987 41.0067 103.7 41.58 103.7C42.1533 103.7 42.44 103.987 42.44 104.56C42.44 105.133 42.1533 105.42 41.58 105.42ZM38.226 106.882C37.6527 106.882 37.366 106.595 37.366 106.022C37.366 105.449 37.6527 105.162 38.226 105.162C38.7993 105.162 39.086 105.449 39.086 106.022C39.086 106.595 38.7993 106.882 38.226 106.882ZM34.7 107.914C34.1267 107.914 33.84 107.627 33.84 107.054C33.84 106.481 34.1267 106.194 34.7 106.194C35.2733 106.194 35.56 106.481 35.56 107.054C35.56 107.627 35.2733 107.914 34.7 107.914ZM31.088 108.43C30.5147 108.43 30.228 108.143 30.228 107.57C30.228 106.997 30.5147 106.71 31.088 106.71C31.6613 106.71 31.948 106.997 31.948 107.57C31.948 108.143 31.6613 108.43 31.088 108.43ZM27.476 108.516C26.9027 108.516 26.616 108.229 26.616 107.656C26.616 107.083 26.9027 106.796 27.476 106.796C28.0493 106.796 28.336 107.083 28.336 107.656C28.336 108.229 28.0493 108.516 27.476 108.516ZM23.864 108C23.2907 108 23.004 107.713 23.004 107.14C23.004 106.567 23.2907 106.28 23.864 106.28C24.4373 106.28 24.724 106.567 24.724 107.14C24.724 107.713 24.4373 108 23.864 108ZM20.424 106.882C19.8507 106.882 19.564 106.595 19.564 106.022C19.564 105.449 19.8507 105.162 20.424 105.162C20.9973 105.162 21.284 105.449 21.284 106.022C21.284 106.595 20.9973 106.882 20.424 106.882ZM17.07 105.248C16.4967 105.248 16.21 104.961 16.21 104.388C16.21 103.815 16.4967 103.528 17.07 103.528C17.6433 103.528 17.93 103.815 17.93 104.388C17.93 104.961 17.6433 105.248 17.07 105.248ZM1.246 78.846C0.672667 78.846 0.386 78.5593 0.386 77.986C0.386 77.4127 0.672667 77.126 1.246 77.126C1.81933 77.126 2.106 77.4127 2.106 77.986C2.106 78.5593 1.81933 78.846 1.246 78.846ZM1.504 82.458C0.930667 82.458 0.644 82.1713 0.644 81.598C0.644 81.0247 0.930667 80.738 1.504 80.738C2.07733 80.738 2.364 81.0247 2.364 81.598C2.364 82.1713 2.07733 82.458 1.504 82.458ZM2.278 85.984C1.70467 85.984 1.418 85.6973 1.418 85.124C1.418 84.5507 1.70467 84.264 2.278 84.264C2.85133 84.264 3.138 84.5507 3.138 85.124C3.138 85.6973 2.85133 85.984 2.278 85.984ZM3.396 89.596C2.82267 89.596 2.536 89.3093 2.536 88.736C2.536 88.1627 2.82267 87.876 3.396 87.876C3.96933 87.876 4.256 88.1627 4.256 88.736C4.256 89.3093 3.96933 89.596 3.396 89.596ZM4.944 92.778C4.37067 92.778 4.084 92.4913 4.084 91.918C4.084 91.3447 4.37067 91.058 4.944 91.058C5.51733 91.058 5.804 91.3447 5.804 91.918C5.804 92.4913 5.51733 92.778 4.944 92.778ZM6.492 95.702C5.91867 95.702 5.632 95.4153 5.632 94.842C5.632 94.2687 5.91867 93.982 6.492 93.982C7.06533 93.982 7.352 94.2687 7.352 94.842C7.352 95.4153 7.06533 95.702 6.492 95.702ZM8.814 98.54C8.24067 98.54 7.954 98.2533 7.954 97.68C7.954 97.1067 8.24067 96.82 8.814 96.82C9.38733 96.82 9.674 97.1067 9.674 97.68C9.674 98.2533 9.38733 98.54 8.814 98.54ZM11.308 101.034C10.7347 101.034 10.448 100.747 10.448 100.174C10.448 99.6007 10.7347 99.314 11.308 99.314C11.8813 99.314 12.168 99.6007 12.168 100.174C12.168 100.747 11.8813 101.034 11.308 101.034ZM14.146 103.27C13.5727 103.27 13.286 102.983 13.286 102.41C13.286 101.837 13.5727 101.55 14.146 101.55C14.7193 101.55 15.006 101.837 15.006 102.41C15.006 102.983 14.7193 103.27 14.146 103.27ZM50.352 59.496C50.9253 59.496 51.212 59.7827 51.212 60.356C51.212 60.9293 50.9253 61.216 50.352 61.216C49.7787 61.216 49.492 60.9293 49.492 60.356C49.492 59.7827 49.7787 59.496 50.352 59.496ZM48.46 56.572C49.0333 56.572 49.32 56.8587 49.32 57.432C49.32 58.0053 49.0333 58.292 48.46 58.292C47.8867 58.292 47.6 58.0053 47.6 57.432C47.6 56.8587 47.8867 56.572 48.46 56.572ZM46.138 53.82C46.7113 53.82 46.998 54.1067 46.998 54.68C46.998 55.2533 46.7113 55.54 46.138 55.54C45.5647 55.54 45.278 55.2533 45.278 54.68C45.278 54.1067 45.5647 53.82 46.138 53.82ZM43.472 51.412C44.0453 51.412 44.332 51.6987 44.332 52.272C44.332 52.8453 44.0453 53.132 43.472 53.132C42.8987 53.132 42.612 52.8453 42.612 52.272C42.612 51.6987 42.8987 51.412 43.472 51.412ZM40.29 49.606C40.8633 49.606 41.15 49.8927 41.15 50.466C41.15 51.0393 40.8633 51.326 40.29 51.326C39.7167 51.326 39.43 51.0393 39.43 50.466C39.43 49.8927 39.7167 49.606 40.29 49.606ZM37.022 48.23C37.5953 48.23 37.882 48.5167 37.882 49.09C37.882 49.6633 37.5953 49.95 37.022 49.95C36.4487 49.95 36.162 49.6633 36.162 49.09C36.162 48.5167 36.4487 48.23 37.022 48.23ZM33.668 47.198C34.2413 47.198 34.528 47.4847 34.528 48.058C34.528 48.6313 34.2413 48.918 33.668 48.918C33.0947 48.918 32.808 48.6313 32.808 48.058C32.808 47.4847 33.0947 47.198 33.668 47.198ZM30.228 46.768C30.8013 46.768 31.088 47.0547 31.088 47.628C31.088 48.2013 30.8013 48.488 30.228 48.488C29.6547 48.488 29.368 48.2013 29.368 47.628C29.368 47.0547 29.6547 46.768 30.228 46.768ZM26.702 46.768C27.2753 46.768 27.562 47.0547 27.562 47.628C27.562 48.2013 27.2753 48.488 26.702 48.488C26.1287 48.488 25.842 48.2013 25.842 47.628C25.842 47.0547 26.1287 46.768 26.702 46.768ZM23.262 47.284C23.8353 47.284 24.122 47.5707 24.122 48.144C24.122 48.7173 23.8353 49.004 23.262 49.004C22.6887 49.004 22.402 48.7173 22.402 48.144C22.402 47.5707 22.6887 47.284 23.262 47.284ZM19.736 48.316C20.3093 48.316 20.596 48.6027 20.596 49.176C20.596 49.7493 20.3093 50.036 19.736 50.036C19.1627 50.036 18.876 49.7493 18.876 49.176C18.876 48.6027 19.1627 48.316 19.736 48.316ZM16.468 49.692C17.0413 49.692 17.328 49.9787 17.328 50.552C17.328 51.1253 17.0413 51.412 16.468 51.412C15.8947 51.412 15.608 51.1253 15.608 50.552C15.608 49.9787 15.8947 49.692 16.468 49.692ZM1.332 73.428C1.90533 73.428 2.192 73.7147 2.192 74.288C2.192 74.8613 1.90533 75.148 1.332 75.148C0.758667 75.148 0.472 74.8613 0.472 74.288C0.472 73.7147 0.758667 73.428 1.332 73.428ZM1.848 69.902C2.42133 69.902 2.708 70.1887 2.708 70.762C2.708 71.3353 2.42133 71.622 1.848 71.622C1.27467 71.622 0.988 71.3353 0.988 70.762C0.988 70.1887 1.27467 69.902 1.848 69.902ZM2.794 66.462C3.36733 66.462 3.654 66.7487 3.654 67.322C3.654 67.8953 3.36733 68.182 2.794 68.182C2.22067 68.182 1.934 67.8953 1.934 67.322C1.934 66.7487 2.22067 66.462 2.794 66.462ZM4.084 63.022C4.65733 63.022 4.944 63.3087 4.944 63.882C4.944 64.4553 4.65733 64.742 4.084 64.742C3.51067 64.742 3.224 64.4553 3.224 63.882C3.224 63.3087 3.51067 63.022 4.084 63.022ZM5.804 59.926C6.37733 59.926 6.664 60.2127 6.664 60.786C6.664 61.3593 6.37733 61.646 5.804 61.646C5.23067 61.646 4.944 61.3593 4.944 60.786C4.944 60.2127 5.23067 59.926 5.804 59.926ZM7.868 57.002C8.44133 57.002 8.728 57.2887 8.728 57.862C8.728 58.4353 8.44133 58.722 7.868 58.722C7.29467 58.722 7.008 58.4353 7.008 57.862C7.008 57.2887 7.29467 57.002 7.868 57.002ZM10.448 54.078C11.0213 54.078 11.308 54.3647 11.308 54.938C11.308 55.5113 11.0213 55.798 10.448 55.798C9.87467 55.798 9.588 55.5113 9.588 54.938C9.588 54.3647 9.87467 54.078 10.448 54.078ZM13.286 51.67C13.8593 51.67 14.146 51.9567 14.146 52.53C14.146 53.1033 13.8593 53.39 13.286 53.39C12.7127 53.39 12.426 53.1033 12.426 52.53C12.426 51.9567 12.7127 51.67 13.286 51.67Z" fill="black"/>
</g>
</svg>
