<svg width="1412" height="1029" viewBox="0 0 1412 1029" fill="none" xmlns="http://www.w3.org/2000/svg">
<path opacity="0.5" d="M312.782 76.8375C194.939 165.931 176.677 334.401 96.8668 458.687C69.084 501.934 33.1848 540.639 14.4549 588.616C-28.546 698.431 30.6355 822.998 109.848 910.218C147.62 951.826 191.739 989.946 245.12 1007.48C286.17 1020.97 330.185 1021.53 373.394 1021.88L1130.4 1028.91C1214.92 1029.68 1308.83 1026.89 1369.59 968.029C1411.48 927.498 1428.49 868.306 1442.93 811.806C1460.67 742.381 1476.75 666.985 1449.14 600.862C1417.62 525.208 1337.88 482.336 1288.35 417.055C1207.97 311.29 1209.82 151.32 1107.45 66.8862C1059.67 27.4791 996.608 12.0253 935.163 4.29838C819.323 -10.2891 709.597 17.2468 595.838 13.4068C498.599 10.1287 393.451 15.8419 312.782 76.8375Z" fill="#E7ECFF"/>
</svg>
